<svg xmlns="http://www.w3.org/2000/svg" viewBox="0 0 1200 800"><defs><linearGradient id="grad1" x1="0%" y1="0%" x2="100%" y2="100%"><stop offset="0%" style="stop-color:#000000;stop-opacity:1" /><stop offset="25%" style="stop-color:#ff0080;stop-opacity:0.9" /><stop offset="50%" style="stop-color:#00d4ff;stop-opacity:0.8" /><stop offset="75%" style="stop-color:#ff6b35;stop-opacity:0.9" /><stop offset="100%" style="stop-color:#000000;stop-opacity:1" /></linearGradient><pattern id="cityscape" x="0" y="0" width="200" height="100" patternUnits="userSpaceOnUse"><rect width="200" height="100" fill="none"/><rect x="10" y="60" width="15" height="40" fill="#00d4ff" opacity="0.2"/><rect x="30" y="40" width="20" height="60" fill="#ff0080" opacity="0.25"/><rect x="55" y="50" width="12" height="50" fill="#00d4ff" opacity="0.2"/><rect x="75" y="30" width="18" height="70" fill="#ff6b35" opacity="0.22"/><rect x="100" y="45" width="16" height="55" fill="#00d4ff" opacity="0.2"/><rect x="125" y="35" width="22" height="65" fill="#ff0080" opacity="0.24"/><rect x="155" y="55" width="14" height="45" fill="#00d4ff" opacity="0.2"/><rect x="175" y="25" width="20" height="75" fill="#ff6b35" opacity="0.23"/></pattern><pattern id="musicwaves" x="0" y="0" width="300" height="150" patternUnits="userSpaceOnUse"><path d="M0,75 Q75,25 150,75 T300,75" stroke="#00d4ff" stroke-width="2" fill="none" opacity="0.3"/><path d="M0,85 Q75,35 150,85 T300,85" stroke="#ff0080" stroke-width="2" fill="none" opacity="0.25"/><path d="M0,65 Q75,15 150,65 T300,65" stroke="#ff6b35" stroke-width="2" fill="none" opacity="0.28"/><circle cx="50" cy="75" r="3" fill="#00d4ff" opacity="0.4"/><circle cx="150" cy="75" r="2.5" fill="#ff0080" opacity="0.35"/><circle cx="250" cy="75" r="3.5" fill="#ff6b35" opacity="0.42"/></pattern></defs><rect width="1200" height="800" fill="url(#grad1)"/><rect width="1200" height="800" fill="url(#cityscape)" opacity="0.4"/><rect width="1200" height="800" fill="url(#musicwaves)" opacity="0.5"/><circle cx="200" cy="150" r="4" fill="#00d4ff" opacity="0.6"/><circle cx="800" cy="200" r="3" fill="#ff0080" opacity="0.7"/><circle cx="1000" cy="400" r="5" fill="#ff6b35" opacity="0.5"/><circle cx="400" cy="600" r="3.5" fill="#00d4ff" opacity="0.55"/><circle cx="600" cy="300" r="2.5" fill="#ff0080" opacity="0.65"/></svg>